<svg id="Layer_1" data-name="Layer 1" xmlns="http://www.w3.org/2000/svg" viewBox="0 0 400 90.75"><defs><style>.cls-1{fill:#b33771;}.cls-2{fill:#fff;}.cls-3{fill:#ff4d61;}.cls-4{fill:none;stroke:#fff;stroke-miterlimit:10;stroke-width:2px;}</style></defs><circle class="cls-1" cx="105.49" cy="36.34" r="29.78"/><path class="cls-2" d="M0,24.56V70.22H9V24.56Z"/><path class="cls-2" d="M52.86,24.56,53,52.07,21.15,22.76h-.37V70.22H29.9l-.18-27,32,28.86h.24V24.56Z"/><path class="cls-2" d="M166.43,61.53V51.66H186V43h-19.6V33.24h22.15V24.56H157.43V70.22h32V61.53Z"/><path class="cls-2" d="M230.82,24.56,231,52.07,199.12,22.76h-.37V70.22h9.12l-.18-27,31.94,28.86h.25V24.56Z"/><path class="cls-2" d="M251.67,24.56V70.22h9V24.56Z"/><path class="cls-2" d="M314.48,38.51A23.82,23.82,0,0,0,309.39,31a24.43,24.43,0,0,0-7.47-5.12,22.83,22.83,0,0,0-18.05,0A23.62,23.62,0,0,0,276.45,31a24,24,0,0,0-5,7.47,23.37,23.37,0,0,0,0,18,23.27,23.27,0,0,0,12.41,12.41,23.53,23.53,0,0,0,18.05,0,24,24,0,0,0,7.47-5,23.05,23.05,0,0,0,5.09-7.42,23,23,0,0,0,0-18ZM306,53.12A15,15,0,0,1,303,57.78,13.2,13.2,0,0,1,293.23,62a13.87,13.87,0,0,1-10.14-4.25A14.63,14.63,0,0,1,279,47.45a15.58,15.58,0,0,1,1-5.77A14.26,14.26,0,0,1,283,37a14,14,0,0,1,15.51-3.13A13.42,13.42,0,0,1,302.94,37a15.55,15.55,0,0,1,3,16.13Z"/><path class="cls-2" d="M352.48,24.56V53.34a7.67,7.67,0,0,1-1.27,4.16A9.82,9.82,0,0,1,342.8,62a9.13,9.13,0,0,1-4.68-1.24,10,10,0,0,1-3.44-3.22,7.4,7.4,0,0,1-1.31-4.16V24.56h-9v29a16.11,16.11,0,0,0,2.48,8.9,17.39,17.39,0,0,0,6.67,6.08,19.57,19.57,0,0,0,9.27,2.2,19.92,19.92,0,0,0,9.37-2.2,17.41,17.41,0,0,0,6.7-6.08,16.19,16.19,0,0,0,2.48-8.9v-29Z"/><path class="cls-2" d="M396.15,48.29a14.49,14.49,0,0,0-3.5-2.55A36.1,36.1,0,0,0,388.71,44a42.59,42.59,0,0,1-4.19-1.8,12.28,12.28,0,0,1-3.29-2.26,4.25,4.25,0,0,1,.41-6.42,7.8,7.8,0,0,1,4.59-1.18,15.54,15.54,0,0,1,5,.93,34.59,34.59,0,0,1,5.31,2.36L400,28.71a31.48,31.48,0,0,0-6.17-3.1,25.79,25.79,0,0,0-9-1.3,17.26,17.26,0,0,0-7.44,1.89,12.63,12.63,0,0,0-5,4.62,13.1,13.1,0,0,0-1.77,6.89A11.16,11.16,0,0,0,375,47a21.76,21.76,0,0,0,4.19,2.58c1.49.7,2.93,1.32,4.34,1.86a19.64,19.64,0,0,1,3.32,1.61,9.25,9.25,0,0,1,2.42,2,3.85,3.85,0,0,1,.9,2.48,4.26,4.26,0,0,1-1.09,3.1,5.91,5.91,0,0,1-2.73,1.58,11.88,11.88,0,0,1-3.25.47,14.28,14.28,0,0,1-3.54-.5,21.18,21.18,0,0,1-3.82-1.39,21.69,21.69,0,0,1-3.5-2.08l-4,7a26.86,26.86,0,0,0,5,2.76,28,28,0,0,0,10.61,2.14,18.19,18.19,0,0,0,8.56-1.83,13.08,13.08,0,0,0,5.28-4.81,12.22,12.22,0,0,0,1.8-6.45,14.43,14.43,0,0,0-.94-5.55A11,11,0,0,0,396.15,48.29Z"/><path class="cls-2" d="M202.59,78.05h.46V87.6h-.46Z"/><path class="cls-2" d="M234.38,87.8l-7.57-8.86.12-.14v8.8h-.46V77.87h0l7.62,8.94-.17,0V78.05h.44V87.8Z"/><path class="cls-2" d="M262.44,78.93a5.65,5.65,0,0,0-1-.36,4.35,4.35,0,0,0-1.23-.17,2.43,2.43,0,0,0-1.6.5,1.56,1.56,0,0,0-.6,1.26,1.34,1.34,0,0,0,.34.94,3,3,0,0,0,.87.63c.36.17.74.33,1.15.5a8.62,8.62,0,0,1,.95.39,4,4,0,0,1,.85.52,2.19,2.19,0,0,1,.62.76A2.56,2.56,0,0,1,263,85a2.61,2.61,0,0,1-.38,1.41,2.54,2.54,0,0,1-1,.93,3.37,3.37,0,0,1-1.52.33,4.55,4.55,0,0,1-1.33-.18,5.81,5.81,0,0,1-1-.42l-.63-.37.21-.39a5.22,5.22,0,0,0,.73.43,5,5,0,0,0,.94.37,3.31,3.31,0,0,0,1,.16,3,3,0,0,0,1.2-.25,2.28,2.28,0,0,0,.95-.75,2.07,2.07,0,0,0,.38-1.26,1.88,1.88,0,0,0-.36-1.21,2.66,2.66,0,0,0-.92-.73,10.65,10.65,0,0,0-1.19-.51l-.91-.37a4.05,4.05,0,0,1-.82-.46,2,2,0,0,1-.59-.64,1.78,1.78,0,0,1-.22-.91,2,2,0,0,1,.35-1.16,2.44,2.44,0,0,1,.93-.77,3.33,3.33,0,0,1,1.33-.29,6.14,6.14,0,0,1,1.29.16,5.5,5.5,0,0,1,1.19.42Z"/><path class="cls-2" d="M285.77,78.05h.46V87.6h-.46Z"/><path class="cls-2" d="M309.66,87.6V78.05h2.27a5.55,5.55,0,0,1,2.34.44,4.28,4.28,0,0,1,1.58,1.15,4.73,4.73,0,0,1,.89,1.55,5.47,5.47,0,0,1,.28,1.67,4.93,4.93,0,0,1-.38,2,4.37,4.37,0,0,1-1,1.49,4.55,4.55,0,0,1-1.48,1,4.69,4.69,0,0,1-1.75.33Zm.46-.45h2.11a4.64,4.64,0,0,0,1.68-.3,4,4,0,0,0,2.3-2.22,4.79,4.79,0,0,0,.07-3.36,4.09,4.09,0,0,0-.84-1.4,3.84,3.84,0,0,0-1.43-1,5.38,5.38,0,0,0-2.06-.36h-1.83Z"/><path class="cls-2" d="M339.84,78.05h5.79v.44H340.3v4.07h4.8V83h-4.8v4.15h5.52v.45h-6Z"/><path class="cls-3" d="M145.88,36.76Q145.57,52,136.14,62.2A37,37,0,0,1,123.6,71,37.67,37.67,0,0,1,109,74.19a34.3,34.3,0,0,1-4.3-.21V70.71a15.73,15.73,0,0,0,2.42.31,31.65,31.65,0,0,0,12.68-1.9,32.93,32.93,0,0,0,19.71-17.9,32.19,32.19,0,0,0,3-11.17H115.73a21.15,21.15,0,0,1-4.26-.36c-.48-.17-.72-.62-.72-1.34,0-1.09.83-1.64,2.47-1.64l3.07,0Z"/><path class="cls-3" d="M139.42,17a1.43,1.43,0,0,1-.54,1.13,1.92,1.92,0,0,1-1.31.46c-.78,0-1.62-.59-2.5-1.79q-9.24-12.3-23.19-13.55c-1.06-.1-2.13-.14-3.23-.14a31.27,31.27,0,0,0-4,.25V.19A36.91,36.91,0,0,1,108.5,0c1.36,0,2.7.06,4,.19a36.23,36.23,0,0,1,22,10.22C137.79,13.52,139.42,15.73,139.42,17Z"/><path class="cls-2" d="M102.61,43.56l.21,14.73a14.18,14.18,0,0,1-1,5.91c-5.48,7.47-10.89,3.12-10.89,3.12C84,62.3,88.68,56,88.68,56c4.85-5.57,9.92-2,9.92-2l1.05-2.07c-3.25-2.11-9.07-.38-9.07-.38.33-.8-.17-3.67-.17-3.67l-2.15.63c.63,10-8.19,10-8.19,10-5.11-.42-6.84-5.82-6.84-5.82C71.67,44.87,78.59,43,78.59,43L78,40.92c-2.57.31-6,4.33-6,4.33-4-2.83-1.69-8.78-1.69-8.78,2.15-5,8.15-4.39,8.15-4.39,6.37,0,6.67,7.56,6.67,7.56l2.23-.13c.26-1.69-1.43-5.23-1.09-5.23a53.66,53.66,0,0,0,4.47-3.8l-1.94-.93a5.66,5.66,0,0,1-4.48,2.87c-2.11-3.21-8.52-2.79-8.52-2.79-3.72-3.21-.68-8.1-.68-8.1,2.54-6.08,10.64-3.46,10.64-3.46C87,21.87,91.17,24,91.17,24c2.7,1.41,3.12,5.59,3.12,5.59l2.2.25c0-2-1.57-5.49-1.57-5.49A6.27,6.27,0,0,0,97.33,24l-.68-2.26c-7.42,1.69-9.11-4.9-9.11-4.9s-3-8.86,5.4-10,9.88,6.33,9.88,6.33l-.34,27.83c-1.52-1.55-5.15-1.58-5.15-1.58v1.94C99.48,40.56,102.61,43.56,102.61,43.56ZM84.75,59.81s-.34,8.61,7.18,10.47c0,0,10.08,3.08,12.79-8.19V12.58s-2.41-9.75-12-8.1c0,0-8.4,1.73-7.68,11.31a9.53,9.53,0,0,0-11.57,4.39s-3.37,5.44.26,10.34c0,0-6.93,2.57-6.21,9.79,0,0,.42,5.07,3.59,7.26,0,0-1.77,7.68,3.38,10.89C74.5,58.46,78.08,62.05,84.75,59.81Z"/><line class="cls-4" x1="3.33" y1="85.65" x2="191.33" y2="85.65"/></svg>